<svg height="512" viewBox="0 0 64 64" width="512" xmlns="http://www.w3.org/2000/svg"><g id="laptop-woman-student-learning-online_education" data-name="laptop-woman-student-learning-online education"><path d="m5 7v38h46v-38a4 4 0 0 0 -4-4h-38a4 4 0 0 0 -4 4z" fill="#46f8ff"/><path d="m51 7v38h-5v-38a4 4 0 0 0 -4-4h5a4 4 0 0 1 4 4z" fill="#00e7f0"/><path d="m61 45v16h-34v-16l13-2a4 4 0 1 0 8 0z" fill="#ea348b"/><path d="m60 24v4a2.006 2.006 0 0 1 -2 2h-4.05c.03-.33.05-.66.05-1v-6c0-.34-.02-.67-.05-1h4.05a2.006 2.006 0 0 1 2 2z" fill="#a78966"/><path d="m57 36 2 4h-11v-1.84a9.977 9.977 0 0 0 5.95-8.16h3.05z" fill="#ffcd00"/><path d="m59 40h-3l-2-4v-6h3v6z" fill="#ebbf00"/><path d="m58 22h-4.05a10 10 0 0 0 -19.9 0h-4.05a13 13 0 0 1 13-13h2a13.007 13.007 0 0 1 13 13z" fill="#e0e0e2"/><path d="m54 23v6c0 .34-.02.67-.05 1a10 10 0 0 1 -19.9 0c-.03-.33-.05-.66-.05-1v-6c0-.34.02-.67.05-1h5.59a9.932 9.932 0 0 0 4.47-1.06l1.89-.94 1.89.94a9.932 9.932 0 0 0 4.47 1.06h1.59c.03.33.05.66.05 1z" fill="#ffc477"/><path d="m53.95 22h-1.59a9.932 9.932 0 0 1 -4.47-1.06l-1.89-.94-1.89.94a9.932 9.932 0 0 1 -4.47 1.06h-5.59a10 10 0 0 1 19.9 0z" fill="#ffcd00"/><path d="m48 40v3a4 4 0 0 1 -8 0v-4.84a9.944 9.944 0 0 0 8 0z" fill="#ffc477"/><path d="m40 38.16v1.84h-11l2-6v-4h3.05a9.977 9.977 0 0 0 5.95 8.16z" fill="#ffcd00"/><path d="m30 22h4.05c-.03.33-.05.66-.05 1v6c0 .34.02.67.05 1h-4.05a2.006 2.006 0 0 1 -2-2v-4a2.006 2.006 0 0 1 2-2z" fill="#a78966"/><path d="m27 45v4h-20a4 4 0 0 1 -4-4v-4h15v2a2.006 2.006 0 0 0 2 2z" fill="#c6c5ca"/><path d="m61 45v16h-4v-16l-9.05-1.39a4.071 4.071 0 0 0 .05-.61z" fill="#c61469"/><path d="m60 24v4a2.006 2.006 0 0 1 -2 2h-4a2.006 2.006 0 0 0 2-2v-4a2.006 2.006 0 0 0 -2-2h4a2.006 2.006 0 0 1 2 2z" fill="#806749"/><path d="m54 23v6c0 .34-.02.67-.05 1a10.017 10.017 0 0 1 -9.95 9 10.2 10.2 0 0 1 -2-.2 9.722 9.722 0 0 0 2-.64 9.977 9.977 0 0 0 5.95-8.16c.03-.33.05-.66.05-1v-6c0-.34-.02-.67-.05-1h-1.59a9.853 9.853 0 0 1 -4.36-1.01.536.536 0 0 0 .11-.05l1.89-.94 1.89.94a9.932 9.932 0 0 0 4.47 1.06h1.59c.03.33.05.66.05 1z" fill="#ffa733"/><path d="m53.95 22h-1.59a9.624 9.624 0 0 1 -2.45-.31 10.014 10.014 0 0 0 -7.89-8.49 10 10 0 0 1 11.93 8.8z" fill="#ebbf00"/><path d="m48 27a1 1 0 0 1 1 1h2a3 3 0 0 0 -6 0h2a1 1 0 0 1 1-1z"/><path d="m40 27a1 1 0 0 1 1 1h2a3 3 0 0 0 -6 0h2a1 1 0 0 1 1-1z"/><path d="m42 32h-2c0 1.682 1.757 3 4 3s4-1.318 4-3h-2c0 .408-.779 1-2 1s-2-.592-2-1z"/><path d="m8 44h2v2h-2z"/><path d="m12 44h2v2h-2z"/><path d="m61.15 44.01-12.15-1.87v-1.14h10a1 1 0 0 0 .89-1.45l-1.89-3.79v-4.76a3.009 3.009 0 0 0 3-3v-4a2.993 2.993 0 0 0 -2.04-2.83 14.025 14.025 0 0 0 -6.96-11.28v-2.89a5 5 0 0 0 -5-5h-38a5 5 0 0 0 -5 5v33h-1a1 1 0 0 0 -1 1v4a5 5 0 0 0 5 5h19v11a1 1 0 0 0 1 1h34a1 1 0 0 0 1-1v-16a1.008 1.008 0 0 0 -.85-.99zm-17.15-6.01a9.014 9.014 0 0 1 -9-9v-6h4.64a11.052 11.052 0 0 0 4.92-1.16l1.44-.72 1.44.71a10.929 10.929 0 0 0 4.92 1.17h.64v6a9.014 9.014 0 0 1 -9 9zm3 1.57v3.43a3 3 0 0 1 -6 0v-3.43a10.68 10.68 0 0 0 6 0zm-15.05-5.25a1.185 1.185 0 0 0 .05-.32v-3h1.19a11.043 11.043 0 0 0 5.81 7.79v.21h-8.61zm-1.95-5.32a1 1 0 0 1 -1-1v-4a1 1 0 0 1 1-1h3v6zm5.23-8a8.994 8.994 0 0 1 17.54 0h-.41a8.914 8.914 0 0 1 -4.02-.96l-1.89-.94a1.017 1.017 0 0 0 -.9 0l-1.89.95a9.036 9.036 0 0 1 -4.02.95zm13.77 18v-.21a11.043 11.043 0 0 0 5.81-7.79h1.19v5a1 1 0 0 0 .11.45l1.27 2.55zm10-15v4a1 1 0 0 1 -1 1h-3v-6h3a1 1 0 0 1 1 1zm-2.05-3h-2.14a10.992 10.992 0 0 0 -21.62 0h-2.14a12.009 12.009 0 0 1 11.95-11h2a12.009 12.009 0 0 1 11.95 11zm-30.95 27h-19a3.009 3.009 0 0 1 -3-3v-3h13v1a3.009 3.009 0 0 0 3 3h6zm.92-4h-6.92a1 1 0 0 1 -1-1v-2a1 1 0 0 0 -1-1h-12v-33a3.009 3.009 0 0 1 3-3h38a3.009 3.009 0 0 1 3 3v1.94a13.884 13.884 0 0 0 -5-.94h-2a14.007 14.007 0 0 0 -13.96 13.17 2.993 2.993 0 0 0 -2.04 2.83v4a3.009 3.009 0 0 0 3 3v2.84l-1.95 5.84a1 1 0 0 0 .14.9.983.983 0 0 0 .81.42h10v1.14zm33.08 16h-32v-14.14l11.14-1.72a4.99 4.99 0 0 0 9.72 0l11.14 1.72z"/></g></svg>